<?xml version="1.0" encoding="utf-8"?>
<!-- Generator: Adobe Illustrator 21.0.0, SVG Export Plug-In . SVG Version: 6.00 Build 0)  -->
<svg version="1.1" id="Слой_1" xmlns="http://www.w3.org/2000/svg" xmlns:xlink="http://www.w3.org/1999/xlink" x="0px" y="0px"
	 viewBox="0 0 586 544" style="enable-background:new 0 0 586 544;" xml:space="preserve">
<style type="text/css">
	.st0{fill:#FFFFFF;enable-background:new    ;}
</style>
<g>
	<path d="M586.2,88.3c-6,19.1-12.1,38.2-18,57.3c-18.8,60.7-37.5,121.4-56.3,182c-3.7,11.8-8.6,15.1-22.9,16.7
		c-24.4,2.7-48.8,5.9-73.3,8.8c-23.6,2.8-47.2,5.5-70.8,8.3c-23.6,2.8-47.2,5.9-70.8,8.7c-23.4,2.8-46.9,5.5-71.1,8.4
		c0,4.7-0.8,9.6,0.3,14c0.5,2.1,4.6,4.4,7.2,4.6c10.6,0.7,21.3,1.5,31.8,0.6c29.1-2.7,58.2-6.4,87.3-9.4
		c44.5-4.6,89.2-3.1,133.8-2.2c10.8,0.2,21.7,0.2,32.5,0.3c10.8,0.1,18.4,7.7,18.4,18.1s-7.8,17.9-18.6,17.9
		c-35.2-0.3-70.3-1.5-105.5-0.7c-28.4,0.6-56.8,3.4-85.1,5.7c-26.2,2.1-52.3,5.3-78.5,7.1c-9.3,0.6-19.1-0.3-28.1-2.6
		c-21.7-5.5-34.9-24.3-31.8-48.8c2.2-16.9-1.3-32-5.5-47.6c-22.1-82-44-164-66-246C90.8,73,85.8,56.7,81.1,40.2
		c-0.4-1.2-0.9-2.4-1.4-3.9c-18.8,0-37.5-0.3-56.1,0.1C12.1,36.6,4,32.6,0.2,21.3c0-2,0-4,0-6C5.2,2.8,9.1,0.2,22.6,0.2
		c23.1,0,46.3,0,69.4,0c10.4,0,16.2,4.5,19.2,14.6c4.4,15.1,8.9,30.2,12.9,45.4c1.3,5.1,3.6,6.6,8.8,6.6
		c143.6,0,287.1,0.2,430.7,0.4c13.6,0.1,17.6,2.7,22.6,15.1C586.2,84.3,586.2,86.3,586.2,88.3z M352.6,181.1c0,21.2,0,42.1,0,62.8
		c25.3,0,50.1,0,75,0c0-21.1,0-41.8,0-62.8C402.4,181.1,377.5,181.1,352.6,181.1z M328,181c-25,0-49.7,0-74.6,0c0,21.1,0,42,0,62.9
		c25.1,0,49.8,0,74.6,0C328,222.9,328,202.1,328,181z M328.1,268.7c-24.9,0-49.7,0-74.8,0c0,22.5,0,44.8,0,67.6
		c25.1-3,49.9-6.1,74.8-9.1C328.1,307.4,328.1,288.3,328.1,268.7z M228.8,103.1c-30.9,0-61.6,0-92.5,0c4.6,17.2,9.2,33.8,13.5,50.4
		c0.8,3.3,2.6,3.6,5.3,3.6c23.1-0.1,46.3,0,69.4-0.1c1.4,0,2.9-0.2,4.3-0.4C228.8,138.6,228.8,121,228.8,103.1z M452.1,103.4
		c0,18.1,0,35.7,0,53.2c0.8,0.2,1.3,0.4,1.8,0.4c23.3,0,46.6,0.1,69.9-0.1c1.4,0,3.6-2,4.2-3.6c3-8.9,5.6-18,8.4-27.1
		c2.3-7.5,4.6-15,7.1-22.9C512.6,103.4,482.5,103.4,452.1,103.4z M352.4,156.6c1,0.2,1.6,0.4,2.3,0.4c23.2,0,46.3,0,69.5,0.1
		c3.3,0,3.9-1.4,3.8-4.2c-0.1-12.5,0-25,0-37.5c0-3.9,0-7.9,0-12c-25.6,0-50.5,0-75.6,0C352.4,121.2,352.4,138.7,352.4,156.6z
		 M157.2,181.1c5.4,20.5,10.7,40.5,16.2,60.4c0.3,1.2,2.8,2.6,4.3,2.7c10.2,0.2,20.3,0.1,30.5,0.1c6.8,0,13.6,0,20.6,0
		c0-21.3,0-42.1,0-63.2C205.1,181.1,181.5,181.1,157.2,181.1z M327.9,156.8c0-18.2,0-35.8,0-53.6c-25,0-49.7,0-74.5,0
		c0,18,0,35.7,0,53.6C278.4,156.8,303,156.8,327.9,156.8z M427.7,268.7c-25.3,0-50.3,0-75.2,0c0,18.6,0,36.9,0,55.6
		c25.3-3,50.2-6.1,75.2-9.1C427.7,299.4,427.7,284.1,427.7,268.7z M452.1,181c0,21.3,0,42.1,0,63.3c15.4,0,30.4,0.1,45.3-0.2
		c1.2,0,3.1-2.1,3.6-3.6c3-9,5.6-18,8.4-27c3.3-10.7,6.6-21.4,10.1-32.5C496.7,181,474.6,181,452.1,181z M228.9,268.6
		c-16.3,0-32,0-48.2,0c6.7,24.9,13.3,49.4,19.9,74c10-1.2,19.1-2.4,28.4-3.5C228.9,315.3,228.9,292.1,228.9,268.6z M452,312.4
		c8.3-1,16.3-2.3,24.3-2.9c2.9-0.2,4-1.5,4.8-3.9c2.7-9,5.5-18.1,8.2-27.1c1-3.2,2-6.5,3-10c-13.8,0-26.9,0-40.4,0
		C452,283,452,297.4,452,312.4z"/>
	<path d="M221.5,542.4c-24.2,0-43.3-19.1-43.3-43.4c0-24.1,19.4-43.6,43.4-43.5c23.8,0,43.6,19.9,43.6,43.6
		C265.1,523.1,245.6,542.4,221.5,542.4z"/>
	<path d="M415.8,498.6c0.3-24.1,20.1-43.6,43.8-43.1c24.2,0.5,43.1,19.9,42.9,44c-0.2,24.7-19.6,43.2-44.8,42.9
		C434.4,542.1,415.5,522.4,415.8,498.6z"/>
</g>
<path class="st0" d="M0,0"/>
</svg>
