<?xml version="1.0" encoding="utf-8"?>
<!-- Generator: Adobe Illustrator 21.0.0, SVG Export Plug-In . SVG Version: 6.00 Build 0)  -->
<svg version="1.1" id="Слой_1" xmlns="http://www.w3.org/2000/svg" xmlns:xlink="http://www.w3.org/1999/xlink" x="0px" y="0px"
	 viewBox="0 0 108 120" style="enable-background:new 0 0 108 120;" xml:space="preserve">
<path d="M26,38H2c-1.1,0-2-0.9-2-2s0.9-2,2-2h24c1.1,0,2,0.9,2,2S27.1,38,26,38z"/>
<path d="M22,50H2c-1.1,0-2-0.9-2-2s0.9-2,2-2h20c1.1,0,2,0.9,2,2S23.1,50,22,50z"/>
<path d="M18,62H2c-1.1,0-2-0.9-2-2s0.9-2,2-2h16c1.1,0,2,0.9,2,2S19.1,62,18,62z"/>
<path d="M88,78H36c-2.7,0-5.1-1.1-6.7-3c-1.6-2-2.1-4.5-1.6-7.2l8.6-40.4C37.5,22.2,42.7,18,48,18h52c2.7,0,5.1,1.1,6.7,3
	c1.6,2,2.1,4.5,1.6,7.2l-8.6,40.4C98.5,73.8,93.3,78,88,78z M48,22c-3.5,0-7,2.9-7.7,6.2l-8.6,40.4c-0.3,1.5,0,2.8,0.8,3.8
	c0.8,1,2.1,1.6,3.6,1.6h52c3.5,0,7-2.9,7.7-6.2l8.6-40.4c0.3-1.5,0.1-2.8-0.8-3.8c-0.8-1-2.1-1.6-3.6-1.6L48,22z"/>
<path d="M68.9,58.3c-0.3,0-0.5,0-0.8,0c-2.6-0.2-5-1.6-6.6-4L46.7,33c-0.6-0.9-0.4-2.2,0.5-2.8c0.9-0.6,2.2-0.4,2.8,0.5L64.8,52
	c0.9,1.3,2.2,2.1,3.7,2.3c1.5,0.1,2.9-0.4,4-1.6l22.1-22.1c0.8-0.8,2.1-0.8,2.8,0s0.8,2,0,2.8L75.4,55.5
	C73.5,57.3,71.3,58.3,68.9,58.3z"/>
<path d="M85.3,65.8c-0.6,0-1.1-0.2-1.5-0.7l-9.9-11.3c-0.7-0.8-0.6-2.1,0.2-2.8c0.8-0.7,2.1-0.6,2.8,0.2l9.9,11.3
	c0.7,0.8,0.6,2.1-0.2,2.8C86.3,65.6,85.8,65.8,85.3,65.8z"/>
<path d="M42.7,66.2c-0.6,0-1.2-0.3-1.6-0.8c-0.7-0.9-0.5-2.1,0.3-2.8l18.1-14.4c0.9-0.7,2.1-0.5,2.8,0.3c0.7,0.9,0.6,2.1-0.3,2.8
	L44,65.8C43.6,66.1,43.2,66.2,42.7,66.2z"/>
</svg>
