<?xml version="1.0" encoding="utf-8"?>
<!-- Generator: Adobe Illustrator 21.0.0, SVG Export Plug-In . SVG Version: 6.00 Build 0)  -->
<svg version="1.1" id="Режим_изоляции"
	 xmlns="http://www.w3.org/2000/svg" xmlns:xlink="http://www.w3.org/1999/xlink" x="0px" y="0px" viewBox="0 0 63.7 43.8"
	 style="enable-background:new 0 0 63.7 43.8;" xml:space="preserve">
<style type="text/css">
	.st0{fill:#FFFFFF;}
</style>
<g>
	<path class="st0" d="M33.3,13.3h17.2l-5.6,5.6c-0.8,0.8-0.8,2,0,2.8s2,0.8,2.8,0l9-9c0.8-0.8,0.8-2,0-2.8l-9-9
		c-0.8-0.8-2-0.8-2.8,0s-0.8,2,0,2.8l5.6,5.5H33.3c-1.1,0-2,0.9-2,2C31.3,12.4,32.2,13.3,33.3,13.3z"/>
	<path class="st0" d="M59,29.5c-0.2,0-35.5,0-35.5,0l-7.1-24c-0.2-0.7-0.8-1.3-1.6-1.4l-12-2C1.7,1.9,0.7,2.6,0.5,3.7S1.1,5.8,2.1,6
		l10.7,1.8L20,32.1c0.2,0.9,1,1.5,1.9,1.5h2.5C24.1,34.3,24,35.1,24,36c0,3.6,2.9,6.5,6.5,6.5S37,39.6,37,36c0-0.9-0.2-1.7-0.5-2.5
		h9C45.1,34.3,45,35.1,45,36c0,3.6,2.9,6.5,6.5,6.5S58,39.6,58,36c0-0.9-0.2-1.7-0.5-2.5H59c1.1,0,2-0.9,2-2
		C61,30.4,60.1,29.5,59,29.5z M30.5,38.5c-1.4,0-2.5-1.1-2.5-2.5s1.1-2.5,2.5-2.5S33,34.6,33,36S31.9,38.5,30.5,38.5z M51.5,38.5
		c-1.4,0-2.5-1.1-2.5-2.5s1.1-2.5,2.5-2.5S54,34.6,54,36S52.9,38.5,51.5,38.5z"/>
</g>
</svg>
