<?xml version="1.0" encoding="utf-8"?>
<!-- Generator: Adobe Illustrator 21.0.0, SVG Export Plug-In . SVG Version: 6.00 Build 0)  -->
<svg version="1.1" id="Слой_1" xmlns="http://www.w3.org/2000/svg" xmlns:xlink="http://www.w3.org/1999/xlink" x="0px" y="0px"
	 viewBox="0 0 1497.1 1215.4" style="enable-background:new 0 0 1497.1 1215.4;" xml:space="preserve">
<style type="text/css">
	.st0{fill:#FFFFFF;}
	.st1{enable-background:new    ;}
</style>
<g>
	<path class="st0" d="M1009,8.3c12.3,0,24.7,0,37,0c2,0.3,3.9,0.7,5.9,0.9c10.1,1.2,20.2,1.8,30.3,3.5
		c63.2,10.5,116.8,39.3,161.7,84.9c2.5,2.6,4.7,3.4,8.2,2.7c64-13.5,124.6-35.7,181.6-67.8c1.7-0.9,3.4-1.8,6.1-3.2
		c-23.4,71.8-67.9,125.3-132.5,164c2.8,0,4.1,0.2,5.3,0c27.6-5.1,55.4-9.6,82.8-15.6c29.5-6.4,57.7-16.9,85.7-28.1c0,0.3,0,0.7,0,1
		c-1.1,1.2-2.3,2.2-3.2,3.5c-39.8,56.4-87.6,105.1-143.1,146.2c-3.6,2.7-5,5.4-4.9,9.8c0.8,51.9-1.3,103.6-9.1,155
		c-11,72.9-31.2,143.3-59.8,211.2c-42.8,101.5-101.2,193-176.9,273.2c-61.6,65.3-134.4,115.5-214.1,156.1
		c-107.2,54.6-221.2,83.7-341.1,90.1c-10.3,0.5-20.6,1.2-30.8,1.8c-15,0-30,0-45,0c-2-0.3-3.9-0.7-5.9-0.7
		c-43-1.1-85.7-5.6-128.1-13.1c-107.9-19.3-207.7-59-300.3-117.4c-1-0.6-1.8-1.5-3.6-2.9c80.2,7.3,158.3,2.9,235-18
		c76.8-20.9,146.2-56.5,210.1-105.6C310.6,934,206.9,829.3,179.4,730c44.7,10.5,88.5,8.6,132.9-6.9C174.4,698.9,65.6,563.2,73,427.8
		c42.5,22.1,87.2,34.9,135.1,36.9C144,419.2,98.7,360.6,82.8,282.4c-15.6-76.9-6.3-150.2,33.8-218.5
		c163.2,189.8,368,295.4,617.9,312.4c0.3-1.5,0.5-1.9,0.5-2.4c-0.1-1.2-0.4-2.3-0.6-3.4c-8.5-47.9-8.2-95.5,4.2-142.7
		c15.6-59.1,48.5-107.3,94-147.2c43.8-38.5,94.6-62.1,152.7-69.5C993.2,10.1,1001.1,9.3,1009,8.3z"/>
</g>
<path class="st1" d="M0,0"/>
</svg>
