<?xml version="1.0" encoding="utf-8"?>
<!-- Generator: Adobe Illustrator 21.0.0, SVG Export Plug-In . SVG Version: 6.00 Build 0)  -->
<svg version="1.1" id="Слой_1" xmlns="http://www.w3.org/2000/svg" xmlns:xlink="http://www.w3.org/1999/xlink" x="0px" y="0px"
	 viewBox="0 0 802.7 509" style="enable-background:new 0 0 802.7 509;" xml:space="preserve">
<style type="text/css">
	.st0{fill:#FFFFFF;}
</style>
<g>
	<path class="st0" d="M646.6,278.6c0,25.2,0,49.8,0,74.2c24.9,0,49.3,0,74.2,0c0-24.8,0-49.3,0-74.2c25.1,0,49.6,0,74.1,0
		c0-24.9,0-49.3,0-74.2c-24.8,0-49.3,0-74.2,0c0-25.1,0-49.6,0-74.1c-24.9,0-49.3,0-74.2,0c0,24.8,0,49.3,0,74.2
		c-25.1,0-49.6,0-74.1,0c0,24.9,0,49.3,0,74.1C596.9,278.6,621.3,278.6,646.6,278.6z"/>
	<g>
		<path class="st0" d="M496,204.7c-82.5,0-164.2,0-245.7,0c0,33.1,0,65.9,0,99c45.9,0,91.5,0,137.3,0c-0.2,1.1-0.2,2-0.5,2.7
			c-5.1,12-9.4,24.3-15.3,35.9c-10,19.8-24.5,35.9-44.6,46.4c-18.5,9.7-38.6,13.2-59.2,14.6c-46.6,3-87.2-10.7-119.7-44.7
			c-42.9-45.1-53.8-110.8-28.2-167.5C160,103.1,262,84.2,327.7,124.1c8.2,5.1,16,10.9,23.9,16.3c23.6-24.3,47.2-48.7,70.9-73.2
			c-0.2-0.2-0.6-0.8-1.1-1.2c-35.4-31.4-76.3-51.5-123-59.9c-9.5-1.7-19.2-2.7-28.8-4c-10.6,0-21.1,0-31.7,0
			C228.5,3.5,219.2,4.4,210,6C138.6,19.3,82.9,56.4,42.7,116.7c-23.6,35.4-36.7,74.8-40,117.5c-0.1,1.3-0.5,2.6-0.8,3.9
			c0,10.6,0,21.1,0,31.7c0.3,1.3,0.7,2.6,0.8,3.9c3.4,43.2,16.8,83,40.8,119c33.6,50.3,79.3,84.6,137.2,102.5
			c43.3,13.4,87.2,13.9,131.3,5.6c70.7-13.3,123.6-51.4,156.2-115.9c24.9-49.3,32.7-102,29.6-156.7
			C497.6,220.2,496.7,212.3,496,204.7z"/>
		<path class="st0" d="M720.5,204.2c0-25.1,0-49.6,0-74.1c-24.9,0-49.3,0-74.2,0c0,24.8,0,49.3,0,74.2c-25.1,0-49.6,0-74.1,0
			c0,24.9,0,49.3,0,74.1c24.6,0,49,0,74.2,0c0,25.2,0,49.8,0,74.2c24.9,0,49.3,0,74.2,0c0-24.8,0-49.3,0-74.2c25.1,0,49.6,0,74.1,0
			c0-24.9,0-49.3,0-74.2C770.1,204.2,745.6,204.2,720.5,204.2z"/>
	</g>
</g>
<path d="M0,0"/>
</svg>
