<?xml version="1.0" encoding="utf-8"?>
<!-- Generator: Adobe Illustrator 21.0.0, SVG Export Plug-In . SVG Version: 6.00 Build 0)  -->
<svg version="1.1" id="Слой_1" xmlns="http://www.w3.org/2000/svg" xmlns:xlink="http://www.w3.org/1999/xlink" x="0px" y="0px"
	 viewBox="0 0 749.1 1409.7" style="enable-background:new 0 0 749.1 1409.7;" xml:space="preserve">
<style type="text/css">
	.st0{fill:#FFFFFF;}
	.st1{fill:none;enable-background:new    ;}
</style>
<g>
	<path class="st0" d="M528.4,7.7c20.3,0,40.7,0,61,0c1.6,0.2,3.3,0.6,4.9,0.7c40.3,2.2,80.5,4.2,120.8,6.5
		c8.1,0.5,16.1,1.8,23.9,2.7c0,73.1,0,145.5,0,218c-1.2,0.1-2,0.2-2.8,0.2c-45.6,1.1-91.3,1.8-136.9,3.4
		c-14.7,0.5-29.6,2.2-44.1,4.9c-29.4,5.5-51.3,21.2-62.6,49.9c-7.6,19.4-10.2,39.6-10.2,60.2c0,52,0,104,0,156c0,1.6,0,3.2,0,5.4
		c82.6,0,164.6,0,247.2,0c-10.9,82.7-21.7,164.8-32.5,247.4c-71.7,0-143,0-214.8,0c0,210.6,0,420.6,0,630.7c-85.9,0-171.3,0-257.3,0
		c0-210.5,0-420.5,0-630.8c-2.7,0-4.9,0-7.1,0c-69.2,0-138.3,0-207.5-0.1c0-82.3,0-164.7,0-247c2.2-0.1,4.3-0.2,6.5-0.2
		c67.3,0,134.6,0,201.9,0c1.9,0,3.9,0,6.4,0c0-2.6,0-4.5,0-6.5c0-59,0-118,0-177c0-34.3,3.2-68.2,11.2-101.5
		c11.7-48.5,32.7-92.1,67.2-128.6c54.8-57.9,123.8-85.2,201.9-92.3C513.2,9,520.8,8.4,528.4,7.7z"/>
</g>
<path class="st1" d="z"/>
</svg>
