<svg id="Слой_1" data-name="Слой 1" xmlns="http://www.w3.org/2000/svg" viewBox="0 0 346.76 290.76">
    <defs>
        <style>
            .cls-1,.cls-2,.cls-4{fill:none;}.cls-1{isolation:isolate;}.cls-3{fill:#313e49;}.cls-4{stroke:#313e49;stroke-miterlimit:10;stroke-width:15.53px;}
        </style>
    </defs>
    <title>chat1</title>
    <path class="cls-1" transform="translate(512.76 187.22)"/>
    <path class="cls-2"
          d="M-437.63-87.78c-12.18,0-22.22,9.3-22.22,20.59s10,20.59,22.22,20.59,22.22-9.3,22.22-20.59C-415.77-78.48-425.45-87.78-437.63-87.78Z"
          transform="translate(512.76 187.22)"/>
    <path class="cls-2"
          d="M-366.32-87.78c-12.18,0-22.22,9.3-22.22,20.59s10,20.59,22.22,20.59,22.22-9.3,22.22-20.59S-354.13-87.78-366.32-87.78Z"
          transform="translate(512.76 187.22)"/>
    <path class="cls-2"
          d="M-294.65-87.78c-12.18,0-22.22,9.3-22.22,20.59s10,20.59,22.22,20.59,22.22-9.3,22.22-20.59C-272.79-78.48-282.46-87.78-294.65-87.78Z"
          transform="translate(512.76 187.22)"/>
    <path class="cls-3"
          d="M-212.94-57.89c-.72,5-1.79,10-2.87,14.62,20.78,11,34.4,29.56,34.4,50.49,0,13.62-8.24,30.56-21.14,42.52l-1.79,1.66c-2.51,2.33-6.45,6.31-7.17,7l-1.43,1.33-6.81,21.59-23.65-14h-2.51c-.36,0-3.23.33-6.45.33-3.23.33-6.81.66-7.53.66-23.29,0-44.08-8.3-58.41-20.93a102.45,102.45,0,0,1-17.56,3.65c16.84,19.27,44.79,31.56,76,31.56.72,0,5-.33,9-.66,1.08,0,2.51-.33,3.23-.33l36.91,21.92,11.47-35.87c1.79-1.66,4.3-4.32,6.09-6.31l1.79-1.66C-176,45.08-166,24.49-166,7.21-166-20.36-185-44.6-212.94-57.89Z"
          transform="translate(512.76 187.22)"/>
    <path class="cls-4"
          d="M-227.64-70.18c0-60.12-62.35-109.28-138.68-109.28S-505-130.3-505-70.18c0,24.25,15.05,55.14,37.27,76.06l4.66,4.65c4.3,4.32,10,10,11.11,11l1.43,1.33L-437.63,64l45.15-26.9H-390c.72,0,4.66.33,9.32.66,6.09.33,13.26,1,14.69,1C-289.63,39.1-227.64-9.73-227.64-70.18Zm-210,23.25c-12.18,0-22.22-9.3-22.22-20.59s10-20.59,22.22-20.59,22.22,9.3,22.22,20.59C-415.77-55.9-425.45-46.93-437.63-46.93Zm71.31,0c-12.18,0-22.22-9.3-22.22-20.59s10-20.59,22.22-20.59,22.22,9.3,22.22,20.59C-344.1-55.9-354.13-46.93-366.32-46.93Zm71.67,0c-12.18,0-22.22-9.3-22.22-20.59s10-20.59,22.22-20.59,22.22,9.3,22.22,20.59C-272.79-55.9-282.46-46.93-294.65-46.93Z"
          transform="translate(512.76 187.22)"/>
</svg>