<?xml version="1.0" encoding="utf-8"?>
<!-- Generator: Adobe Illustrator 21.0.0, SVG Export Plug-In . SVG Version: 6.00 Build 0)  -->
<svg version="1.1" id="Слой_1" xmlns="http://www.w3.org/2000/svg" xmlns:xlink="http://www.w3.org/1999/xlink" x="0px" y="0px"
	 viewBox="0 0 100 125" style="enable-background:new 0 0 100 125;" xml:space="preserve">
<style type="text/css">
	.st0{fill:none;}
	.st1{fill:#313E49;}
	.st2{fill:none;stroke:#313E49;stroke-width:4.5;stroke-miterlimit:10;}
</style>
<g>
	<path class="st0" d="M21.5,37.1c-3.4,0-6.2,2.8-6.2,6.2c0,3.4,2.8,6.2,6.2,6.2c3.4,0,6.2-2.8,6.2-6.2
		C27.6,39.9,24.9,37.1,21.5,37.1z"/>
	<path class="st0" d="M41.4,37.1c-3.4,0-6.2,2.8-6.2,6.2c0,3.4,2.8,6.2,6.2,6.2c3.4,0,6.2-2.8,6.2-6.2
		C47.6,39.9,44.8,37.1,41.4,37.1z"/>
	<path class="st0" d="M61.4,37.1c-3.4,0-6.2,2.8-6.2,6.2c0,3.4,2.8,6.2,6.2,6.2s6.2-2.8,6.2-6.2C67.5,39.9,64.8,37.1,61.4,37.1z"/>
	<path class="st1" d="M84.2,46.1c-0.2,1.5-0.5,3-0.8,4.4c5.8,3.3,9.6,8.9,9.6,15.2c0,4.1-2.3,9.2-5.9,12.8l-0.5,0.5
		c-0.7,0.7-1.8,1.9-2,2.1l-0.4,0.4L82.3,88l-6.6-4.2l-0.7,0c-0.1,0-0.9,0.1-1.8,0.1c-0.9,0.1-1.9,0.2-2.1,0.2
		c-6.5,0-12.3-2.5-16.3-6.3c-1.6,0.5-3.2,0.9-4.9,1.1c4.7,5.8,12.5,9.5,21.2,9.5c0.2,0,1.4-0.1,2.5-0.2c0.3,0,0.7-0.1,0.9-0.1
		l10.3,6.6L88,83.9c0.5-0.5,1.2-1.3,1.7-1.9l0.5-0.5c4.3-4.4,7.1-10.6,7.1-15.8C97.3,57.4,92,50.1,84.2,46.1z"/>
	<path class="st2" d="M80.1,42.4c0-18.1-17.4-32.9-38.7-32.9C20.1,9.5,2.7,24.3,2.7,42.4c0,7.3,4.2,16.6,10.4,22.9l1.3,1.4
		c1.2,1.3,2.8,3,3.1,3.3l0.4,0.4l3.6,12.4l12.6-8.1l0.7,0c0.2,0,1.3,0.1,2.6,0.2c1.7,0.1,3.7,0.3,4.1,0.3
		C62.8,75.3,80.1,60.6,80.1,42.4z M21.5,49.4c-3.4,0-6.2-2.8-6.2-6.2c0-3.4,2.8-6.2,6.2-6.2c3.4,0,6.2,2.8,6.2,6.2
		C27.6,46.7,24.9,49.4,21.5,49.4z M41.4,49.4c-3.4,0-6.2-2.8-6.2-6.2c0-3.4,2.8-6.2,6.2-6.2c3.4,0,6.2,2.8,6.2,6.2
		C47.6,46.7,44.8,49.4,41.4,49.4z M61.4,49.4c-3.4,0-6.2-2.8-6.2-6.2c0-3.4,2.8-6.2,6.2-6.2s6.2,2.8,6.2,6.2
		C67.5,46.7,64.8,49.4,61.4,49.4z"/>
</g>
</svg>
