<svg id="Слой_1" data-name="Слой 1" xmlns="http://www.w3.org/2000/svg" viewBox="0 0 178.77 101.19">
    <defs>
        <style>.cls-1{fill:none;isolation:isolate;}.cls-2{fill:#313e49;}</style>
    </defs>
    <title>mail2</title>
    <path class="cls-1" transform="translate(69 194.46)"/>
    <path class="cls-2"
          d="M102.25-193.36a10.08,10.08,0,0,0-4.93-1.1H-56.55a10.08,10.08,0,0,0-4.93,1.1A11.61,11.61,0,0,0-69-182.61v77.71a11.61,11.61,0,0,0,7.52,10.76,10.3,10.3,0,0,0,4.93.88H97.32a13.91,13.91,0,0,0,4.93-.88,11.61,11.61,0,0,0,7.52-10.76v-77.71A11.61,11.61,0,0,0,102.25-193.36Zm-51,49.61,49.8-38v75.95Zm42-42.58L23.79-133.22a7.2,7.2,0,0,1-7.28,0l-69.3-53.12ZM-60.54-105.78v-75.95l49.8,38Zm7.75,4.61,48.86-37.32,15,11.41a14.13,14.13,0,0,0,9.16,2.85,16,16,0,0,0,9.16-2.85l15-11.41,48.86,37.32Z"
          transform="translate(69 194.46)"/>
</svg>