<?xml version="1.0" encoding="utf-8"?>
<!-- Generator: Adobe Illustrator 21.0.0, SVG Export Plug-In . SVG Version: 6.00 Build 0)  -->
<svg version="1.1" id="Слой_1" xmlns="http://www.w3.org/2000/svg" xmlns:xlink="http://www.w3.org/1999/xlink" x="0px" y="0px"
	 viewBox="0 0 100 125" style="enable-background:new 0 0 100 125;" xml:space="preserve">
<style type="text/css">
	.st0{fill:#313E49;}
</style>
<path class="st0" d="M84.9,28.8c-0.5-0.3-1.2-0.5-2.1-0.5H17.3c-0.9,0-1.6,0.2-2.1,0.5c-1.9,0.8-3.2,2.7-3.2,4.9v35.4
	c0,2.2,1.3,4.1,3.2,4.9c0.5,0.3,1.2,0.4,2.1,0.4h65.5c0.9,0,1.6-0.2,2.1-0.4c1.9-0.8,3.2-2.7,3.2-4.9V33.7
	C88.1,31.5,86.8,29.6,84.9,28.8z M63.2,51.4l21.2-17.3v34.6L63.2,51.4z M81.1,32L51.5,56.2c-0.8,0.6-2.3,0.6-3.1,0L18.9,32H81.1z
	 M15.6,68.7V34.1l21.2,17.3L15.6,68.7z M18.9,70.8l20.8-17l6.4,5.2c1,0.9,2.4,1.3,3.9,1.3c1.5,0,2.8-0.5,3.9-1.3l6.4-5.2l20.8,17
	H18.9z"/>
</svg>
