<?xml version="1.0" encoding="utf-8"?>
<!-- Generator: Adobe Illustrator 21.0.0, SVG Export Plug-In . SVG Version: 6.00 Build 0)  -->
<svg version="1.1" id="Слой_1" xmlns="http://www.w3.org/2000/svg" xmlns:xlink="http://www.w3.org/1999/xlink" x="0px" y="0px"
	 viewBox="0 0 100 125" style="enable-background:new 0 0 100 125;" xml:space="preserve">
<style type="text/css">
	.st0{fill:#313E49;stroke:#313E49;stroke-width:2.568;stroke-miterlimit:10;}
</style>
<path class="st0" d="M31.8,122.2h39c7.9,0,14.3-6.7,14.3-15.1V19.4C85,11,78.7,4.3,70.7,4.3h-39c-7.9,0-14.3,6.7-14.3,15.1v87.7
	C17.5,115.5,23.8,122.2,31.8,122.2z M20.1,19.4C20.1,12.5,25.3,7,31.8,7h39c6.5,0,11.7,5.5,11.7,12.3v87.7c0,6.9-5.2,12.3-11.7,12.3
	h-39c-6.5,0-11.7-5.5-11.7-12.3V19.4z"/>
<path class="st0" d="M33.1,101.6h36.4c3.6,0,6.5-3,6.5-6.9V23.5c0-3.8-2.9-6.9-6.5-6.9H33.1c-3.6,0-6.5,3-6.5,6.9v71.3
	C26.6,98.6,29.4,101.6,33.1,101.6z M29.2,23.5c0-2.3,1.7-4.1,3.9-4.1h36.4c2.2,0,3.9,1.8,3.9,4.1v71.3c0,2.3-1.7,4.1-3.9,4.1H33.1
	c-2.2,0-3.9-1.8-3.9-4.1V23.5z"/>
<path class="st0" d="M51,104.4c-3.1,0-5.7,2.7-5.7,6c0,3.3,2.6,6,5.7,6c3.1,0,5.7-2.7,5.7-6C56.7,107.1,54.2,104.4,51,104.4z
	 M51,113.8c-1.7,0-3.1-1.5-3.1-3.3c0-1.8,1.4-3.3,3.1-3.3c1.7,0,3.1,1.5,3.1,3.3C54.1,112.3,52.7,113.8,51,113.8z"/>
</svg>
